<svg width="120" height="120" viewBox="0 0 120 120" fill="none" xmlns="http://www.w3.org/2000/svg" role="img" aria-labelledby="title desc">
  <title id="title">Default OAuth App Logo</title>
  <desc id="desc">A neutral fallback logo with a Lucide-style box outline on a pale gray background.</desc>
  <rect width="120" height="120" fill="#F4F4F5"/>
  <g
    transform="translate(15 15) scale(3.75)"
    stroke="#B8BBC2"
    stroke-width="0.75"
    stroke-linecap="round"
    stroke-linejoin="round"
  >
    <path d="M3.29 7L12 12V22L4 17.73A2 2 0 0 1 3 16V8C3 7.64 3.1 7.3 3.29 7Z" fill="#B8BBC2" stroke="none"/>
    <path d="M21 16V8A2 2 0 0 0 20 6.27L13 2.27A2 2 0 0 0 11 2.27L4 6.27A2 2 0 0 0 3 8V16A2 2 0 0 0 4 17.73L11 21.73A2 2 0 0 0 13 21.73L20 17.73A2 2 0 0 0 21 16Z"/>
    <path d="M3.29 7L12 12L20.71 7"/>
    <path d="M12 22V12"/>
  </g>
</svg>
